<svg id="visual" viewBox="0 0 960 540" width="960" height="540" xmlns="http://www.w3.org/2000/svg" xmlns:xlink="http://www.w3.org/1999/xlink" version="1.1"><rect x="0" y="0" width="960" height="540" fill="#ffffff"></rect><defs><linearGradient id="grad1_0" x1="43.8%" y1="0%" x2="100%" y2="100%"><stop offset="14.444444444444446%" stop-color="#53219e" stop-opacity="1"></stop><stop offset="85.55555555555554%" stop-color="#53219e" stop-opacity="1"></stop></linearGradient></defs><defs><linearGradient id="grad1_1" x1="43.8%" y1="0%" x2="100%" y2="100%"><stop offset="14.444444444444446%" stop-color="#53219e" stop-opacity="1"></stop><stop offset="85.55555555555554%" stop-color="#8258b7" stop-opacity="1"></stop></linearGradient></defs><defs><linearGradient id="grad1_2" x1="43.8%" y1="0%" x2="100%" y2="100%"><stop offset="14.444444444444446%" stop-color="#ad8ecf" stop-opacity="1"></stop><stop offset="85.55555555555554%" stop-color="#8258b7" stop-opacity="1"></stop></linearGradient></defs><defs><linearGradient id="grad1_3" x1="43.8%" y1="0%" x2="100%" y2="100%"><stop offset="14.444444444444446%" stop-color="#ad8ecf" stop-opacity="1"></stop><stop offset="85.55555555555554%" stop-color="#d7c5e7" stop-opacity="1"></stop></linearGradient></defs><defs><linearGradient id="grad1_4" x1="43.8%" y1="0%" x2="100%" y2="100%"><stop offset="14.444444444444446%" stop-color="#ffffff" stop-opacity="1"></stop><stop offset="85.55555555555554%" stop-color="#d7c5e7" stop-opacity="1"></stop></linearGradient></defs><defs><linearGradient id="grad2_0" x1="0%" y1="0%" x2="56.3%" y2="100%"><stop offset="14.444444444444446%" stop-color="#53219e" stop-opacity="1"></stop><stop offset="85.55555555555554%" stop-color="#53219e" stop-opacity="1"></stop></linearGradient></defs><defs><linearGradient id="grad2_1" x1="0%" y1="0%" x2="56.3%" y2="100%"><stop offset="14.444444444444446%" stop-color="#8258b7" stop-opacity="1"></stop><stop offset="85.55555555555554%" stop-color="#53219e" stop-opacity="1"></stop></linearGradient></defs><defs><linearGradient id="grad2_2" x1="0%" y1="0%" x2="56.3%" y2="100%"><stop offset="14.444444444444446%" stop-color="#8258b7" stop-opacity="1"></stop><stop offset="85.55555555555554%" stop-color="#ad8ecf" stop-opacity="1"></stop></linearGradient></defs><defs><linearGradient id="grad2_3" x1="0%" y1="0%" x2="56.3%" y2="100%"><stop offset="14.444444444444446%" stop-color="#d7c5e7" stop-opacity="1"></stop><stop offset="85.55555555555554%" stop-color="#ad8ecf" stop-opacity="1"></stop></linearGradient></defs><defs><linearGradient id="grad2_4" x1="0%" y1="0%" x2="56.3%" y2="100%"><stop offset="14.444444444444446%" stop-color="#d7c5e7" stop-opacity="1"></stop><stop offset="85.55555555555554%" stop-color="#ffffff" stop-opacity="1"></stop></linearGradient></defs><g transform="translate(960, 0)"><path d="M0 486C-39.4 465.1 -78.9 444.3 -114.7 427.9C-150.4 411.6 -182.6 399.7 -226 391.4C-269.4 383.2 -324.1 378.4 -343.7 343.7C-363.2 308.9 -347.5 244 -346.4 200C-345.3 156 -358.7 132.9 -384.4 103C-410.1 73.2 -448.1 36.6 -486 0L0 0Z" fill="#ebe2f3"></path><path d="M0 388.8C-31.5 372.1 -63.1 355.4 -91.7 342.3C-120.4 329.2 -146.1 319.8 -180.8 313.2C-215.5 306.5 -259.3 302.8 -274.9 274.9C-290.5 247.1 -278 195.2 -277.1 160C-276.2 124.8 -287 106.3 -307.6 82.4C-328.1 58.5 -358.5 29.3 -388.8 0L0 0Z" fill="#c2a9db"></path><path d="M0 291.6C-23.7 279.1 -47.3 266.6 -68.8 256.7C-90.3 246.9 -109.5 239.8 -135.6 234.9C-161.7 229.9 -194.5 227.1 -206.2 206.2C-217.9 185.3 -208.5 146.4 -207.8 120C-207.2 93.6 -215.2 79.7 -230.7 61.8C-246.1 43.9 -268.8 21.9 -291.6 0L0 0Z" fill="#9873c3"></path><path d="M0 194.4C-15.8 186.1 -31.5 177.7 -45.9 171.2C-60.2 164.6 -73 159.9 -90.4 156.6C-107.8 153.3 -129.7 151.4 -137.5 137.5C-145.3 123.5 -139 97.6 -138.6 80C-138.1 62.4 -143.5 53.1 -153.8 41.2C-164.1 29.3 -179.2 14.6 -194.4 0L0 0Z" fill="#6c3daa"></path><path d="M0 97.2C-7.9 93 -15.8 88.9 -22.9 85.6C-30.1 82.3 -36.5 79.9 -45.2 78.3C-53.9 76.6 -64.8 75.7 -68.7 68.7C-72.6 61.8 -69.5 48.8 -69.3 40C-69.1 31.2 -71.7 26.6 -76.9 20.6C-82 14.6 -89.6 7.3 -97.2 0L0 0Z" fill="#53219e"></path></g><g transform="translate(0, 540)"><path d="M0 -486C34.2 -443.4 68.4 -400.7 102.5 -382.5C136.6 -364.3 170.5 -370.4 215 -372.4C259.5 -374.4 314.6 -372.2 343.7 -343.7C372.7 -315.1 375.8 -260.2 373.3 -215.5C370.8 -170.8 362.7 -136.2 380.6 -102C398.4 -67.8 442.2 -33.9 486 0L0 0Z" fill="#ebe2f3"></path><path d="M0 -388.8C27.4 -354.7 54.7 -320.6 82 -306C109.3 -291.4 136.4 -296.3 172 -297.9C207.6 -299.5 251.7 -297.8 274.9 -274.9C298.2 -252.1 300.6 -208.2 298.6 -172.4C296.6 -136.6 290.2 -109 304.5 -81.6C318.8 -54.2 353.8 -27.1 388.8 0L0 0Z" fill="#c2a9db"></path><path d="M0 -291.6C20.5 -266 41.1 -240.4 61.5 -229.5C81.9 -218.6 102.3 -222.2 129 -223.4C155.7 -224.6 188.8 -223.3 206.2 -206.2C223.6 -189.1 225.5 -156.1 224 -129.3C222.5 -102.5 217.6 -81.7 228.3 -61.2C239.1 -40.7 265.3 -20.3 291.6 0L0 0Z" fill="#9873c3"></path><path d="M0 -194.4C13.7 -177.3 27.4 -160.3 41 -153C54.6 -145.7 68.2 -148.2 86 -149C103.8 -149.7 125.8 -148.9 137.5 -137.5C149.1 -126 150.3 -104.1 149.3 -86.2C148.3 -68.3 145.1 -54.5 152.2 -40.8C159.4 -27.1 176.9 -13.6 194.4 0L0 0Z" fill="#6c3daa"></path><path d="M0 -97.2C6.8 -88.7 13.7 -80.1 20.5 -76.5C27.3 -72.9 34.1 -74.1 43 -74.5C51.9 -74.9 62.9 -74.4 68.7 -68.7C74.5 -63 75.2 -52 74.7 -43.1C74.2 -34.2 72.5 -27.2 76.1 -20.4C79.7 -13.6 88.4 -6.8 97.2 0L0 0Z" fill="#53219e"></path></g></svg>