<svg id="visual" viewBox="0 0 960 540" width="960" height="540" xmlns="http://www.w3.org/2000/svg" xmlns:xlink="http://www.w3.org/1999/xlink" version="1.1"><rect width="960" height="540" fill="#ffffff"></rect><g><g transform="translate(282 402)"><path d="M51.8 -49.5C65.6 -37.9 74.4 -18.9 73.6 -0.8C72.8 17.4 62.4 34.7 48.6 48.3C34.7 61.9 17.4 71.7 0.9 70.9C-15.6 70 -31.2 58.4 -45 44.8C-58.8 31.2 -70.9 15.6 -72.1 -1.2C-73.3 -18 -63.7 -36 -49.8 -47.6C-36 -59.3 -18 -64.5 0.5 -65C18.9 -65.5 37.9 -61.1 51.8 -49.5Z" fill="#FCAF3C"></path></g><g transform="translate(57 289)"><path d="M33.7 -33.4C43.2 -24.1 50.4 -12 49.7 -0.6C49.1 10.7 40.7 21.5 31.1 29.7C21.5 37.8 10.7 43.4 0.4 43C-9.9 42.6 -19.9 36.2 -28.1 28C-36.3 19.9 -42.9 9.9 -44.9 -2C-47 -14 -44.5 -28 -36.2 -37.3C-28 -46.7 -14 -51.4 -1 -50.4C12 -49.4 24.1 -42.8 33.7 -33.4Z" fill="#FCAF3C"></path></g><g transform="translate(84 22)"><path d="M48 -51.1C59.3 -36.8 63.3 -18.4 62.2 -1.1C61.1 16.2 54.9 32.4 43.7 47.2C32.4 61.9 16.2 75.1 -0.5 75.6C-17.2 76.1 -34.4 63.8 -46.9 49.1C-59.4 34.4 -67.2 17.2 -67.9 -0.7C-68.6 -18.5 -62.1 -37.1 -49.6 -51.4C-37.1 -65.7 -18.5 -75.8 -0.1 -75.7C18.4 -75.6 36.8 -65.4 48 -51.1Z" fill="#FCAF3C"></path></g><g transform="translate(459 165)"><path d="M18.4 -19.7C23.3 -13.4 26.6 -6.7 26.8 0.2C27 7.1 24.1 14.2 19.2 18.8C14.2 23.4 7.1 25.6 -0.2 25.7C-7.4 25.9 -14.9 24.1 -20.1 19.5C-25.2 14.9 -28.2 7.4 -28.3 -0.2C-28.5 -7.8 -25.9 -15.6 -20.7 -21.9C-15.6 -28.2 -7.8 -33.1 -0.5 -32.5C6.7 -32 13.4 -26 18.4 -19.7Z" fill="#FCAF3C"></path></g><g transform="translate(857 409)"><path d="M41.8 -44.2C49.6 -33.9 48.3 -17 47.3 -1C46.4 15 45.7 30 37.8 38.6C30 47.3 15 49.6 0.5 49C-13.9 48.5 -27.8 45.1 -36.3 36.5C-44.8 27.8 -47.9 13.9 -48.1 -0.2C-48.2 -14.3 -45.5 -28.5 -37 -38.9C-28.5 -49.2 -14.3 -55.6 1.3 -57C17 -58.3 33.9 -54.6 41.8 -44.2Z" fill="#FCAF3C"></path></g><g transform="translate(941 18)"><path d="M40 -43.5C51.4 -28.6 60 -14.3 62.7 2.7C65.4 19.7 62.2 39.4 50.8 51C39.4 62.6 19.7 66 -0.1 66.2C-19.9 66.3 -39.8 63 -49.7 51.4C-59.5 39.8 -59.2 19.9 -58.8 0.4C-58.4 -19.1 -57.9 -38.3 -48.1 -53.2C-38.3 -68.1 -19.1 -78.7 -2.4 -76.3C14.3 -73.9 28.6 -58.4 40 -43.5Z" fill="#FCAF3C"></path></g><g transform="translate(254 130)"><path d="M24.1 -23.4C30.6 -17.6 34.7 -8.8 36.7 2C38.7 12.8 38.5 25.5 32 34.6C25.5 43.6 12.8 48.9 0.4 48.5C-11.9 48 -23.7 41.8 -31.3 32.8C-38.9 23.7 -42.2 11.9 -40.9 1.3C-39.7 -9.3 -33.7 -18.5 -26.1 -24.3C-18.5 -30.1 -9.3 -32.4 -0.2 -32.2C8.8 -32 17.6 -29.2 24.1 -23.4Z" fill="#FCAF3C"></path></g><g transform="translate(624 288)"><path d="M41.7 -40.7C52.6 -30.8 59 -15.4 58 -1C56.9 13.3 48.4 26.6 37.5 36.9C26.6 47.1 13.3 54.4 0.4 54C-12.6 53.6 -25.1 45.6 -34.6 35.4C-44.1 25.1 -50.5 12.6 -52.1 -1.6C-53.7 -15.7 -50.4 -31.4 -40.9 -41.3C-31.4 -51.3 -15.7 -55.5 -0.2 -55.3C15.4 -55.2 30.8 -50.7 41.7 -40.7Z" fill="#FCAF3C"></path></g><g transform="translate(490 441)"><path d="M39.2 -38.5C49.4 -29.1 55.2 -14.5 54.4 -0.8C53.6 12.9 46.2 25.9 36.1 34.1C25.9 42.4 12.9 45.9 -1.1 47.1C-15.2 48.2 -30.3 46.8 -38.1 38.6C-45.9 30.3 -46.3 15.2 -44.7 1.6C-43.1 -12 -39.5 -24 -31.8 -33.4C-24 -42.9 -12 -49.8 1.3 -51.1C14.5 -52.3 29.1 -48 39.2 -38.5Z" fill="#FCAF3C"></path></g><g transform="translate(679 89)"><path d="M25 -26.8C30.2 -19.9 30.6 -9.9 30.7 0.1C30.9 10.2 30.7 20.4 25.6 25.7C20.4 31 10.2 31.4 0.7 30.7C-8.7 30 -17.5 28.1 -24.6 22.8C-31.7 17.5 -37.1 8.7 -37.1 0C-37.1 -8.8 -31.8 -17.6 -24.7 -24.5C-17.6 -31.4 -8.8 -36.4 0.6 -36.9C9.9 -37.5 19.9 -33.6 25 -26.8Z" fill="#FCAF3C"></path></g><g transform="translate(837 211)"><path d="M37.5 -39C47.5 -27.6 53.6 -13.8 55 1.4C56.4 16.6 53 33.1 43.1 43.1C33.1 53 16.6 56.4 -1.5 57.9C-19.6 59.4 -39.1 59 -51 49.1C-62.9 39.1 -67.1 19.6 -64.5 2.6C-62 -14.4 -52.6 -28.9 -40.8 -40.3C-28.9 -51.7 -14.4 -60.1 -0.3 -59.8C13.8 -59.4 27.6 -50.4 37.5 -39Z" fill="#FCAF3C"></path></g><g transform="translate(85 486)"><path d="M43 -45.3C53.2 -32.8 57.1 -16.4 55.5 -1.7C53.8 13 46.5 26.1 36.3 34.5C26.1 42.8 13 46.5 -1.8 48.3C-16.6 50.1 -33.2 49.9 -44.4 41.6C-55.7 33.2 -61.5 16.6 -59.7 1.8C-57.9 -13 -48.4 -25.9 -37.2 -38.4C-25.9 -50.9 -13 -62.9 1.7 -64.7C16.4 -66.4 32.8 -57.8 43 -45.3Z" fill="#FCAF3C"></path></g><g transform="translate(668 531)"><path d="M29.6 -26.8C38.3 -20.8 45.3 -10.4 45.4 0.1C45.5 10.6 38.6 21.1 29.9 28.9C21.1 36.6 10.6 41.4 -0.3 41.7C-11.1 42 -22.2 37.6 -31.4 29.9C-40.5 22.2 -47.7 11.1 -48.1 -0.4C-48.5 -11.9 -42.1 -23.8 -33 -29.8C-23.8 -35.7 -11.9 -35.7 -0.7 -35C10.4 -34.2 20.8 -32.7 29.6 -26.8Z" fill="#FCAF3C"></path></g></g></svg>